# File created by Blade
# Date/Time:  Tue Apr 07 20:13:55 2015
# Frame Rate: 120.000 fps
#------------------------------------------------------
:FULLY-SPECIFIED
:DEGREES
2362
root 3.352087 32.932617 -9.337054 -15.672759 0.981511 -24.929235
Spine 23.099949 -14.885190 18.693801
Head 2.068762 4.659534 5.257407
LeftShoulder 5.570491 31.737583 30.624435
LeftArm 75.229498 16.950106 -67.925616
LeftForeArm -41.211835 -0.000000 71.309788
LeftHand 6.496545 -0.000000 -10.992206
LeftHandThumb1 -26.253704 0.000000 33.147579
RightShoulder 2.432628 -3.256189 -10.779757
RightArm 25.821388 -27.563860 65.876602
RightForeArm 24.178564 -0.000000 53.401902
RightHand 2.707640 -0.000000 10.329249
RightHandThumb1 -24.326973 -0.000000 -32.862282
LeftUpLeg 1.720840 1.114650 19.936642
LeftLeg 30.888891 -0.000000 -0.000000
LeftFoot -16.232449 20.217329 -4.035073
LeftToeBase -17.763308 -0.000000 0.000000
RightUpLeg -114.852905 1.039998 14.284652
RightLeg 126.290220 -0.000000 -0.000000
RightFoot 46.833189 5.172236 2.922187
RightToeBase 37.913979 -0.000000 -0.000000
2363
root 3.298924 32.993594 -9.343964 -15.757430 1.216552 -25.190855
Spine 23.060503 -15.027432 18.748996
Head 2.321590 4.539440 5.522832
LeftShoulder 5.512995 31.661285 30.611459
LeftArm 75.179665 16.751512 -68.083358
LeftForeArm -40.098872 -0.000000 71.695599
LeftHand 6.698738 -0.000000 -10.409062
LeftHandThumb1 -26.253704 0.000000 33.147579
RightShoulder 2.372938 -3.206645 -11.038286
RightArm 25.297909 -27.524009 66.235389
RightForeArm 24.615989 -0.000000 54.669944
RightHand 1.852427 -0.000000 10.313130
RightHandThumb1 -24.326973 -0.000000 -32.862282
LeftUpLeg 1.532661 1.277235 20.338984
LeftLeg 30.951367 -0.000000 -0.000000
LeftFoot -15.642291 20.067943 -3.807879
LeftToeBase -17.845626 -0.000000 0.000000
RightUpLeg -115.030369 1.253916 15.173082
RightLeg 124.336622 -0.000000 -0.000000
RightFoot 46.560079 3.373649 3.764256
RightToeBase 38.157210 -0.000000 -0.000000
2364
root 3.262230 33.050514 -9.354085 -15.802838 1.501274 -25.306304
Spine 22.986450 -15.157385 18.704045
Head 2.510915 4.391417 5.692642
LeftShoulder 5.510402 31.587605 30.610440
LeftArm 75.173420 16.505846 -68.220585
LeftForeArm -39.082380 -0.000000 72.148902
LeftHand 6.656011 -0.000000 -9.786528
LeftHandThumb1 -26.253704 0.000000 33.147579
RightShoulder 2.305027 -3.257799 -11.337535
RightArm 24.832653 -27.352103 66.588535
RightForeArm 24.534998 0.000000 55.906419
RightHand 1.095758 0.000000 10.656562
RightHandThumb1 -24.326973 -0.000000 -32.862282
LeftUpLeg 1.346455 1.471343 20.513317
LeftLeg 30.909055 -0.000000 -0.000000
LeftFoot -15.053796 20.092284 -3.542493
LeftToeBase -17.767961 -0.000000 0.000000
RightUpLeg -115.259159 1.446022 15.964788
RightLeg 122.509637 -0.000000 -0.000000
RightFoot 45.851373 1.699709 3.787705
RightToeBase 37.860773 -0.000000 -0.000000
2365
root 3.230734 33.108179 -9.365741 -15.906040 1.801508 -25.396096
Spine 23.004544 -15.376917 18.625720
Head 2.631545 4.330419 5.743272
LeftShoulder 5.415713 31.519319 30.522521
LeftArm 75.222029 16.239502 -68.320660
LeftForeArm -37.889854 -0.000000 72.528523
LeftHand 6.771348 -0.000000 -9.455922
LeftHandThumb1 -26.253704 0.000000 33.147579
RightShoulder 2.333320 -3.327058 -11.702886
RightArm 24.396911 -27.106551 66.925979
RightForeArm 24.537472 -0.000000 57.252376
RightHand -0.030793 0.000000 11.181197
RightHandThumb1 -24.326973 -0.000000 -32.862282
LeftUpLeg 1.273380 1.700156 20.617938
LeftLeg 30.743279 -0.000000 -0.000000
LeftFoot -14.476845 20.268940 -3.221952
LeftToeBase -17.665733 -0.000000 0.000000
RightUpLeg -115.445261 1.525236 16.514807
RightLeg 120.616026 -0.000000 -0.000000
RightFoot 45.233424 0.261379 4.022166
RightToeBase 38.315657 -0.000000 -0.000000
2366
root 3.199396 33.165290 -9.379755 -16.019687 2.071242 -25.532442
Spine 23.058609 -15.576583 18.624387
Head 2.667419 4.269872 5.752836
LeftShoulder 5.354349 31.407123 30.456004
LeftArm 75.270670 15.954814 -68.485427
LeftForeArm -36.666833 -0.000000 72.947190
LeftHand 6.739002 -0.000000 -9.365057
LeftHandThumb1 -26.253704 0.000000 33.147579
RightShoulder 2.347227 -3.440762 -12.068598
RightArm 24.163201 -27.038589 67.032619
RightForeArm 25.558463 0.000000 58.580362
RightHand -1.252789 -0.000000 11.433589
RightHandThumb1 -24.326973 -0.000000 -32.862282
LeftUpLeg 1.259286 2.060386 20.765811
LeftLeg 30.491410 -0.000000 -0.000000
LeftFoot -13.974905 20.556206 -2.891874
LeftToeBase -17.415735 -0.000000 0.000000
RightUpLeg -115.647006 1.597466 17.134868
RightLeg 118.765034 -0.000000 -0.000000
RightFoot 44.777865 -1.559286 4.230791
RightToeBase 38.426241 -0.000000 -0.000000
2367
root 3.172806 33.218200 -9.394217 -16.132000 2.328075 -25.619528
Spine 23.126651 -15.718714 18.590036
Head 2.687434 4.174298 5.783669
LeftShoulder 5.382205 31.280464 30.478610
LeftArm 75.357092 15.693715 -68.721189
LeftForeArm -35.206520 -0.000000 73.416016
LeftHand 6.853812 0.000000 -9.068576
LeftHandThumb1 -26.253704 0.000000 33.147579
RightShoulder 2.351068 -3.574841 -12.412285
RightArm 23.932553 -26.763574 67.141017
RightForeArm 26.010488 -0.000000 59.809385
RightHand -2.350460 -0.000000 12.446666
RightHandThumb1 -24.326973 -0.000000 -32.862282
LeftUpLeg 1.306907 2.508097 20.834417
LeftLeg 30.117448 -0.000000 -0.000000
LeftFoot -13.550803 20.966241 -2.626795
LeftToeBase -17.105642 -0.000000 0.000000
RightUpLeg -115.854964 1.658447 17.701657
RightLeg 116.974727 -0.000000 -0.000000
RightFoot 44.324310 -2.986502 4.060594
RightToeBase 38.173435 -0.000000 -0.000000
2368
root 3.145276 33.265616 -9.411187 -16.176435 2.589927 -25.769861
Spine 23.103278 -15.878136 18.671708
Head 2.687147 4.106485 5.735178
LeftShoulder 5.416796 31.181238 30.502006
LeftArm 75.465801 15.432166 -69.038195
LeftForeArm -33.765968 -0.000000 74.008889
LeftHand 6.536720 -0.000000 -8.935687
LeftHandThumb1 -26.253704 0.000000 33.147579
RightShoulder 2.352853 -3.703176 -12.759647
RightArm 23.829604 -26.548680 67.118553
RightForeArm 26.600295 0.000000 60.899046
RightHand -3.538551 -0.000000 13.894384
RightHandThumb1 -24.326973 -0.000000 -32.862282
LeftUpLeg 1.284374 3.054400 20.950724
LeftLeg 29.719330 -0.000000 -0.000000
LeftFoot -13.196376 21.432569 -2.322859
LeftToeBase -16.690141 -0.000000 0.000000
RightUpLeg -116.151217 1.590397 18.138164
RightLeg 115.191222 -0.000000 -0.000000
RightFoot 43.960860 -4.098251 4.393579
RightToeBase 38.152103 -0.000000 -0.000000
2369
root 3.128700 33.305793 -9.421801 -16.291453 2.873455 -25.807451
Spine 23.159519 -16.064590 18.619211
Head 2.673799 4.041378 5.692580
LeftShoulder 5.451063 31.132951 30.523408
LeftArm 75.649440 15.145517 -69.245575
LeftForeArm -32.452089 -0.000000 74.650448
LeftHand 6.315283 -0.000000 -8.846559
LeftHandThumb1 -26.253704 0.000000 33.147579
RightShoulder 2.373616 -3.780773 -13.062437
RightArm 23.747571 -26.381662 66.970601
RightForeArm 27.628406 -0.000000 61.910927
RightHand -4.306689 -0.000000 15.599184
RightHandThumb1 -24.326973 -0.000000 -32.862282
LeftUpLeg 1.396331 3.602216 20.905433
LeftLeg 29.223944 -0.000000 -0.000000
LeftFoot -12.916751 21.949885 -2.160178
LeftToeBase -16.191287 -0.000000 0.000000
RightUpLeg -116.450558 1.466773 18.471526
RightLeg 113.486748 -0.000000 -0.000000
RightFoot 43.725074 -5.253246 4.617578
RightToeBase 38.127532 -0.000000 -0.000000
2370
root 3.116442 33.338529 -9.430566 -16.469507 3.179718 -25.821499
Spine 23.293387 -16.280659 18.533806
Head 2.618962 3.958465 5.645876
LeftShoulder 5.478974 31.063829 30.571142
LeftArm 75.902763 14.902706 -69.377891
LeftForeArm -31.129909 0.000000 75.255172
LeftHand 6.300344 -0.000000 -8.669082
LeftHandThumb1 -26.253704 0.000000 33.147579
RightShoulder 2.349034 -3.817598 -13.352759
RightArm 23.854794 -26.361566 66.637291
RightForeArm 29.304061 -0.000000 62.714425
RightHand -5.017168 -0.000000 17.187881
RightHandThumb1 -24.326973 -0.000000 -32.862282
LeftUpLeg 1.586626 4.198414 20.809374
LeftLeg 28.655136 -0.000000 -0.000000
LeftFoot -12.648852 22.635030 -2.028950
LeftToeBase -16.042421 -0.000000 0.000000
RightUpLeg -116.743394 1.258186 18.765578
RightLeg 111.878431 -0.000000 -0.000000
RightFoot 43.426943 -6.334658 4.939639
RightToeBase 37.759635 -0.000000 -0.000000
2371
root 3.086127 33.366385 -9.448485 -16.552702 3.462984 -26.027516
Spine 23.318342 -16.482713 18.666554
Head 2.530872 3.871632 5.635668
LeftShoulder 5.545170 30.823101 30.709449
LeftArm 75.992799 14.701277 -69.557308
LeftForeArm -29.850092 -0.000000 75.924798
LeftHand 6.210198 -0.000000 -8.582747
LeftHandThumb1 -26.253704 0.000000 33.147579
RightShoulder 2.305317 -3.727067 -13.611543
RightArm 24.004964 -26.534825 66.217507
RightForeArm 31.625741 -0.000000 63.383557
RightHand -5.163176 0.000000 19.046156
RightHandThumb1 -24.326973 -0.000000 -32.862282
LeftUpLeg 1.587306 4.953999 20.943795
LeftLeg 28.224846 -0.000000 -0.000000
LeftFoot -12.419381 23.179011 -1.814183
LeftToeBase -15.966555 -0.000000 0.000000
RightUpLeg -117.118326 1.044463 19.253071
RightLeg 110.244568 -0.000000 -0.000000
RightFoot 43.229830 -7.551041 5.070169
RightToeBase 37.573386 -0.000000 -0.000000
2372
root 3.068579 33.387751 -9.454763 -16.763140 3.805030 -26.236545
Spine 23.430309 -16.840234 18.790804
Head 2.460272 3.818078 5.546360
LeftShoulder 5.617922 30.591295 30.792915
LeftArm 76.093166 14.493409 -69.607893
LeftForeArm -28.753430 -0.000000 76.673764
LeftHand 6.162808 -0.000000 -8.097047
LeftHandThumb1 -26.253704 0.000000 33.147579
RightShoulder 2.288495 -3.574464 -13.885988
RightArm 24.256428 -26.804622 65.692579
RightForeArm 34.104339 -0.000000 63.986582
RightHand -5.276426 -0.000000 20.525856
RightHandThumb1 -24.326973 -0.000000 -32.862282
LeftUpLeg 1.707370 5.676861 21.051154
LeftLeg 27.785093 -0.000000 -0.000000
LeftFoot -12.254929 23.714248 -1.680454
LeftToeBase -15.757950 -0.000000 0.000000
RightUpLeg -117.435329 0.659391 19.842967
RightLeg 108.694671 -0.000000 -0.000000
RightFoot 42.989126 -8.655829 5.033786
RightToeBase 37.593556 -0.000000 -0.000000
